{"title":"Megamind.The.Button.of.Doom.[2011].720p.BRrip.XviD.AC3 - CODY","uid":6238549,"size":327734374,"categoryP":"video","categoryS":"hd___movies","magnet":"?xt=urn:btih:4ddb176e300cf1de7ef0b52f6b425f87bbd804ab&amp;dn=Megamind.The.Button.of.Doom.%5B2011%5D.720p.BRrip.XviD.AC3+-+CODY&amp;tr=udp%3A%2F%2Ftracker.openbittorrent.com%3A80&amp;tr=udp%3A%2F%2Fopen.demonii.com%3A1337&amp;tr=udp%3A%2F%2Ftracker.coppersurfer.tk%3A6969&amp;tr=udp%3A%2F%2Fexodus.desync.com%3A6969","seeders":6,"leechers":0,"uploader":"CODYBOSS1969","files":5,"time":1299965286,"description":"General\nComplete name                    : Megamind.The.Button.of.Doom.[2011].720p.XviD.AC3 - CODY.avi\nFormat                           : AVI\nFormat/Info                      : Audio Video Interleave\nFile size                        : 313 MiB\nDuration                         : 15mn 52s\nOverall bit rate                 : 2 748 Kbps\nWriting application              : VirtualDubMod 1.5.10.2 (build 2540/release)\nWriting library                  : VirtualDubMod build 2540/release\n\nVideo\nID                               : 0\nFormat                           : MPEG-4 Visual\nFormat profile                   : Advanced Simple@L5\nFormat settings, BVOP            : Yes\nFormat settings, QPel            : No\nFormat settings, GMC             : No warppoints\nFormat settings, Matrix          : Default (H.263)\nCodec ID                         : XVID\nCodec ID/Hint                    : XviD\nDuration                         : 15mn 52s\nBit rate                         : 2 300 Kbps\nWidth                            : 1 280 pixels\nHeight                           : 720 pixels\nDisplay aspect ratio             : 16:9\nFrame rate                       : 23.976 fps\nColor space                      : YUV\nChroma subsampling               : 4:2:0\nBit depth                        : 8 bits\nScan type                        : Progressive\nCompression mode                 : Lossy\nBits/(Pixel*Frame)               : 0.104\nStream size                      : 261 MiB (83%)\nWriting library                  : XviD 1.2.0.dev47 (UTC 2006-11-01)\n\n\n\nAudio\nID                               : 1\nFormat                           : AC-3\nFormat/Info                      : Audio Coding 3\nMode extension                   : CM (complete main)\nCodec ID                         : 2000\nDuration                         : 15mn 52s\nBit rate mode                    : Constant\nBit rate                         : 448 Kbps\nChannel(s)                       : 6 channels\nChannel positions                : Front: L C R, Side: L R, LFE\nSampling rate                    : 48.0 KHz\nBit depth                        : 16 bits\nCompression mode                 : Lossy\nStream size                      : 50.9 MiB (16%)\nAlignment                        : Aligned on interleaves\nInterleave, duration             : 64 ms (1.53 video frames)\nInterleave, preload duration     : 192 ms\nLanguage                         : English\n\n\n\n\nIMDB link:                        &lt;a href=&quot; http://www.imdb.com/title/tt1847645/&quot; rel=&quot;nofollow&quot; target=&quot;_NEW&quot;&gt; http://www.imdb.com/title/tt1847645/&lt;/a&gt;\n\n\n\n\nSubtitles included               : Romanian, English\n\n\n\n\nPlease seed at least 1,5:1. This way this torrent has a chance to survive !\n\n\nThanks. ENJOY !!!\n","torrent":{"xt":"urn:btih:4ddb176e300cf1de7ef0b52f6b425f87bbd804ab","amp;dn":"Megamind.The.Button.of.Doom.%5B2011%5D.720p.BRrip.XviD.AC3+-+CODY","amp;tr":["udp%3A%2F%2Ftracker.openbittorrent.com%3A80","udp%3A%2F%2Fopen.demonii.com%3A1337","udp%3A%2F%2Ftracker.coppersurfer.tk%3A6969","udp%3A%2F%2Fexodus.desync.com%3A6969"],"infoHash":"4ddb176e300cf1de7ef0b52f6b425f87bbd804ab","infoHashBuffer":{"type":"Buffer","data":[77,219,23,110,48,12,241,222,126,240,181,47,107,66,95,135,187,216,4,171]},"announce":[],"urlList":[]}}